<svg id="Layer_2" data-name="Layer 2" xmlns="http://www.w3.org/2000/svg" width="445.459" height="320.79" viewBox="0 0 445.459 320.79">
  <g id="Capa_1" data-name="Capa 1">
    <path id="Path_1" data-name="Path 1" d="M210.3,313.73c-16.81-7.956-55.88-27.473-95.31-54.411C67.41,226.817,9.55,176.591,4.06,121.861-1.8,63.5,39.363,11.288,96,5.259a99.976,99.976,0,0,1,90.24,37.881l5.36,17.92-20.67,46.424,41.87,60.346-29.15,88.932Z" transform="translate(-0.033 0)" fill="red"/>
    <path id="Path_2" data-name="Path 2" d="M107.31,8.316A96.981,96.981,0,0,1,183.1,44.945l4.76,15.916L168.6,104.1l-1.69,3.8,2.36,3.4,39.64,57.094-28.12,85.693-.91,2.78,1.24,2.656,21.75,46.449a725.9,725.9,0,0,1-86-49.847c-30.16-20.589-54.6-41.446-72.63-61.964-22.03-25.037-34.37-49.486-36.7-72.711C1.954,65.159,41.67,14.837,96.33,8.944h.06a94.461,94.461,0,0,1,10.92-.628m0-7.206a101.692,101.692,0,0,0-11.7.669C37.071,8.039-5.459,61.961.61,122.227,11.5,230.815,217.51,320.79,217.51,320.79h.06l-30.15-64.372,29.27-89.183L175,107.093l20.38-45.729-6-19.889A104.417,104.417,0,0,0,107.31,1.11Z" transform="translate(-0.033 0)" fill="#fff"/>
    <path id="Path_3" data-name="Path 3" d="M203.9,252.2l45.73-82-29.49-67.126L248.36,62.9,246.3,42.327A101.4,101.4,0,0,1,326,3.5c3.25,0,6.54.165,9.78.474,56.547,5.707,98.088,57.256,93.13,115.565-5,55.156-61.51,105.593-108.07,138.188A709.161,709.161,0,0,1,219.95,315.89Z" transform="translate(12.673 0)" fill="red"/>
    <path id="Path_4" data-name="Path 4" d="M326,7.206c3.14,0,6.32.154,9.43.463,54.634,5.486,94.784,55.241,90,111.532-2.11,23.387-14,48-35.45,73.136-17.59,20.639-41.51,41.607-71.11,62.307-40.43,28.277-80.38,48.329-96.58,56.039l-14.61-58.046,44.12-79.065,1.79-3.2L252.11,167,224.2,103.513l26.25-37.386L252,63.9l-.27-2.738-1.8-17.623A98.416,98.416,0,0,1,326,7.206h0M326,0a105.463,105.463,0,0,0-83.269,41.254l-.011-.048,2.08,20.7-28.68,40.773,29.58,67.3L200.16,251.6l17.41,69.163c4-1.771,205-91.675,214.8-200.891,5.138-60.24-37.821-113.5-96.29-119.375Q331,0,326,0Z" transform="translate(12.673 0)" fill="#fff"/>
  </g>
</svg>
