<svg xmlns="http://www.w3.org/2000/svg" viewBox="0 0 391.84 320.79"><defs><style>.cls-1{fill:red;}.cls-2{fill:#fff;}</style></defs><g id="Layer_2" data-name="Layer 2"><g id="Capa_1" data-name="Capa 1"><path class="cls-1" d="M195.93,316.78c-9-5.13-52.68-30.59-95.83-66.09C56,214.42,3.5,160,3.5,106.58A103.19,103.19,0,0,1,106.58,3.5h.82A101.66,101.66,0,0,1,193,50l2.92,4.5L198.84,50A102.79,102.79,0,0,1,285,3.5h.25A103.63,103.63,0,0,1,388.34,106.6c0,54.21-52.58,108.63-96.68,144.74C248.54,286.64,204.94,311.72,195.93,316.78Z"/><path class="cls-2" d="M107.41,7a98.2,98.2,0,0,1,82.64,44.88l5.83,9,5.89-9A99.29,99.29,0,0,1,285,7h.22a100.11,100.11,0,0,1,99.62,99.58c0,23-9.83,48.13-29.21,74.66-15.87,21.74-38.09,44.37-66,67.26C249,281.8,207.79,306,195.94,312.75c-11.83-6.82-53-31.35-93.69-64.83-27.95-23-50.17-45.66-66-67.34C16.82,154.13,7,129.23,7,106.58A99.69,99.69,0,0,1,106.58,7h.83m0-7h-.83A106.58,106.58,0,0,0,0,106.58C0,212.64,195.92,320.79,195.92,320.79S391.84,214.21,391.84,106.58A107.11,107.11,0,0,0,285.26,0H285a106.59,106.59,0,0,0-89.08,48.07A105.53,105.53,0,0,0,107.41,0Z"/></g></g></svg>